<?xml version="1.0" encoding="iso-8859-1"?>
<!-- Generator: Adobe Illustrator 19.0.0, SVG Export Plug-In . SVG Version: 6.00 Build 0)  -->
<svg version="1.1" id="Layer_1" xmlns="http://www.w3.org/2000/svg" xmlns:xlink="http://www.w3.org/1999/xlink" x="0px" y="0px"
	 viewBox="0 0 511.984 511.984" style="enable-background:new 0 0 511.984 511.984;" xml:space="preserve">
<path style="fill:#646C77;" d="M511.984,255.992c0,141.37-114.605,255.992-255.992,255.992C114.606,511.984,0,397.362,0,255.992
	C0,114.606,114.606,0,255.992,0C397.379,0,511.984,114.606,511.984,255.992z"/>
<path style="fill:#FECD57;" d="M469.313,255.992c0,117.809-95.497,213.32-213.321,213.32S42.671,373.801,42.671,255.992
	c0-117.824,95.497-213.337,213.321-213.337S469.313,138.168,469.313,255.992z"/>
<path style="fill:#F5BA45;" d="M85.326,255.992c0-110.621,84.2-201.572,191.994-212.275c-7.016-0.688-14.125-1.063-21.328-1.063
	C138.168,42.655,42.671,138.168,42.671,255.992c0,117.809,95.497,213.32,213.321,213.32c7.203,0,14.313-0.359,21.328-1.063
	C169.526,457.548,85.326,366.597,85.326,255.992z"/>
<g>
</g>
<g>
</g>
<g>
</g>
<g>
</g>
<g>
</g>
<g>
</g>
<g>
</g>
<g>
</g>
<g>
</g>
<g>
</g>
<g>
</g>
<g>
</g>
<g>
</g>
<g>
</g>
<g>
</g>
</svg>
